<svg width="168" height="52" fill="none" xmlns="http://www.w3.org/2000/svg"><g clip-path="url(#a)" fill="#000"><path d="M22 19h-4v6h4v-6ZM34 19h-4v6h4v-6ZM28 19h-4v6h4v-6ZM22 27h-4v6h4v-6ZM34 27h-4v6h4v-6ZM28 27h-4v6h4v-6Z"/></g><g clip-path="url(#b)" fill="#000"><path d="M92 31H76v2h16v-2ZM90 21v6H78v-6h12Zm2-2H76v10h16V19Z"/></g><g clip-path="url(#c)" fill="#000"><path d="M136 19h-2v2h2v-2ZM150 19h-12v2h12v-2ZM136 23h-2v2h2v-2ZM150 23h-12v2h12v-2ZM136 27h-2v2h2v-2ZM150 27h-12v2h12v-2ZM136 31h-2v2h2v-2ZM150 31h-12v2h12v-2Z"/></g><rect x=".5" y=".5" width="167" height="51" rx="4.5" stroke="#7B61FF" stroke-dasharray="10 5"/><defs><clipPath id="a"><path fill="#fff" transform="translate(18 19)" d="M0 0h16v14H0z"/></clipPath><clipPath id="b"><path fill="#fff" transform="translate(76 19)" d="M0 0h16v14H0z"/></clipPath><clipPath id="c"><path fill="#fff" transform="translate(134 19)" d="M0 0h16v14H0z"/></clipPath></defs></svg>